<?xml version="1.0" encoding="UTF-8" standalone="no"?>
<!-- Created with Inkscape (http://www.inkscape.org/) -->

<svg
   xmlns:dc="http://purl.org/dc/elements/1.1/"
   xmlns:cc="http://creativecommons.org/ns#"
   xmlns:rdf="http://www.w3.org/1999/02/22-rdf-syntax-ns#"
   xmlns:svg="http://www.w3.org/2000/svg"
   xmlns="http://www.w3.org/2000/svg"
   xmlns:sodipodi="http://sodipodi.sourceforge.net/DTD/sodipodi-0.dtd"
   xmlns:inkscape="http://www.inkscape.org/namespaces/inkscape"
   width="210mm"
   height="297mm"
   viewBox="0 0 744.09448819 1052.3622047"
   id="svg2"
   version="1.1"
   inkscape:version="0.91 r13725"
   sodipodi:docname="twitterLogo_checkmark_test.svg">
  <defs
     id="defs4" />
  <sodipodi:namedview
     id="base"
     pagecolor="#ffffff"
     bordercolor="#666666"
     borderopacity="1.0"
     inkscape:pageopacity="0.0"
     inkscape:pageshadow="2"
     inkscape:zoom="0.35"
     inkscape:cx="-134.66817"
     inkscape:cy="520"
     inkscape:document-units="px"
     inkscape:current-layer="layer1"
     showgrid="false"
     inkscape:window-width="1248"
     inkscape:window-height="1028"
     inkscape:window-x="708"
     inkscape:window-y="54"
     inkscape:window-maximized="0" />
  <metadata
     id="metadata7">
    <rdf:RDF>
      <cc:Work
         rdf:about="">
        <dc:format>image/svg+xml</dc:format>
        <dc:type
           rdf:resource="http://purl.org/dc/dcmitype/StillImage" />
        <dc:title></dc:title>
      </cc:Work>
    </rdf:RDF>
  </metadata>
  <g
     inkscape:label="Layer 1"
     inkscape:groupmode="layer"
     id="layer1">
    <g
       style="fill:#000000"
       id="g4142"
       transform="matrix(13.292628,0,0,13.701864,436.55028,307.52115)">
      <g
         style="fill:#007100;fill-opacity:1"
         id="surface1">
        <path
           id="path5"
           d="M 22.566406,4.730469 20.773438,3.511719 C 20.277344,3.175781 19.597656,3.304688 19.265625,3.796875 L 10.476563,16.757813 6.4375,12.71875 c -0.421875,-0.421875 -1.109375,-0.421875 -1.53125,0 l -1.535156,1.535156 c -0.421875,0.421875 -0.421875,1.109375 0,1.535157 L 9.582031,22 c 0.347657,0.347656 0.894532,0.613281 1.386719,0.613281 0.492188,0 0.988281,-0.308593 1.308594,-0.773437 L 22.855469,6.234375 C 23.191406,5.742188 23.0625,5.066406 22.566406,4.730469 Z"
           style="fill:#007100;fill-opacity:1"
           inkscape:connector-curvature="0" />
      </g>
    </g>
    <g
       id="g4165"
       transform="translate(5.7142829,295.21934)">
      <g
         id="_x31_0_x2013_20_x25__Black_Tint">
        <rect
           id="rect4151"
           height="400"
           width="400"
           class="st0"
           x="0"
           y="0"
           style="opacity:0.15;fill:#292f33" />
      </g>
      <g
         id="Logo__x2014__FIXED">
        <g
           id="g4154">
          <path
             id="path4156"
             d="m 153.6,301.6 c 94.3,0 145.9,-78.2 145.9,-145.9 0,-2.2 0,-4.4 -0.1,-6.6 10,-7.2 18.7,-16.3 25.6,-26.6 -9.2,4.1 -19.1,6.8 -29.5,8.1 10.6,-6.3 18.7,-16.4 22.6,-28.4 -9.9,5.9 -20.9,10.1 -32.6,12.4 -9.4,-10 -22.7,-16.2 -37.4,-16.2 -28.3,0 -51.3,23 -51.3,51.3 0,4 0.5,7.9 1.3,11.7 -42.6,-2.1 -80.4,-22.6 -105.7,-53.6 -4.4,7.6 -6.9,16.4 -6.9,25.8 0,17.8 9.1,33.5 22.8,42.7 -8.4,-0.3 -16.3,-2.6 -23.2,-6.4 0,0.2 0,0.4 0,0.7 0,24.8 17.7,45.6 41.1,50.3 -4.3,1.2 -8.8,1.8 -13.5,1.8 -3.3,0 -6.5,-0.3 -9.6,-0.9 6.5,20.4 25.5,35.2 47.9,35.6 -17.6,13.8 -39.7,22 -63.7,22 -4.1,0 -8.2,-0.2 -12.2,-0.7 22.6,14.4 49.6,22.9 78.5,22.9"
             class="st1"
             inkscape:connector-curvature="0"
             style="fill:#ffffff" />
        </g>
      </g>
    </g>
    <g
       style="fill:#ce0000;fill-opacity:1"
       id="surface1-6"
       transform="matrix(12.397344,0,0,12.239352,235.97434,740.39349)">
      <path
         id="path5-7"
         d="m 21.734375,19.640625 -2.097656,2.09375 c -0.382813,0.386719 -1.007813,0.386719 -1.394531,0 L 13,16.496094 7.761719,21.734375 c -0.386719,0.386719 -1.015625,0.386719 -1.398438,0 l -2.097656,-2.09375 c -0.386719,-0.386719 -0.386719,-1.011719 0,-1.398437 L 9.503906,13 4.265625,7.761719 c -0.382812,-0.390625 -0.382812,-1.019531 0,-1.398438 L 6.363281,4.265625 c 0.382813,-0.386719 1.011719,-0.386719 1.398438,0 L 13,9.507813 18.242188,4.265625 c 0.386718,-0.386719 1.015625,-0.386719 1.394531,0 l 2.097656,2.09375 c 0.386719,0.386719 0.386719,1.015625 0.0039,1.402344 L 16.496094,13 l 5.238281,5.242188 c 0.386719,0.386718 0.386719,1.011718 0,1.398437 z"
         style="fill:#ce0000;fill-opacity:1"
         inkscape:connector-curvature="0" />
    </g>
  </g>
  <style
     id="style4148"
     type="text/css">
	.st0{opacity:0.15;fill:#292F33;}
	.st1{fill:#FFFFFF;}
</style>
</svg>
