<?xml version="1.0" encoding="UTF-8" standalone="no"?>
<!-- Created with Inkscape (http://www.inkscape.org/) -->

<svg
   width="210mm"
   height="297mm"
   viewBox="0 0 744.09448819 1052.3622047"
   id="svg2"
   version="1.1"
   inkscape:version="1.2.2 (b0a8486541, 2022-12-01)"
   sodipodi:docname="X_logo_and_marks.svg"
   xml:space="preserve"
   xmlns:inkscape="http://www.inkscape.org/namespaces/inkscape"
   xmlns:sodipodi="http://sodipodi.sourceforge.net/DTD/sodipodi-0.dtd"
   xmlns="http://www.w3.org/2000/svg"
   xmlns:svg="http://www.w3.org/2000/svg"
   xmlns:rdf="http://www.w3.org/1999/02/22-rdf-syntax-ns#"
   xmlns:cc="http://creativecommons.org/ns#"
   xmlns:dc="http://purl.org/dc/elements/1.1/"><defs
     id="defs4" /><sodipodi:namedview
     id="base"
     pagecolor="#ffffff"
     bordercolor="#666666"
     borderopacity="1.0"
     inkscape:pageopacity="0.0"
     inkscape:pageshadow="2"
     inkscape:zoom="0.7"
     inkscape:cx="645.71429"
     inkscape:cy="492.14286"
     inkscape:document-units="px"
     inkscape:current-layer="layer1"
     showgrid="false"
     inkscape:window-width="1248"
     inkscape:window-height="1024"
     inkscape:window-x="235"
     inkscape:window-y="27"
     inkscape:window-maximized="0"
     inkscape:showpageshadow="2"
     inkscape:pagecheckerboard="0"
     inkscape:deskcolor="#d1d1d1" /><metadata
     id="metadata7"><rdf:RDF><cc:Work
         rdf:about=""><dc:format>image/svg+xml</dc:format><dc:type
           rdf:resource="http://purl.org/dc/dcmitype/StillImage" /></cc:Work></rdf:RDF></metadata><g
     inkscape:label="Layer 1"
     inkscape:groupmode="layer"
     id="layer1"><g
       style="fill:#000000"
       id="g4142"
       transform="matrix(13.292628,0,0,13.701864,436.55028,307.52115)"><g
         style="fill:#007100;fill-opacity:1"
         id="surface1"><path
           id="path5"
           d="M 22.566406,4.730469 20.773438,3.511719 C 20.277344,3.175781 19.597656,3.304688 19.265625,3.796875 L 10.476563,16.757813 6.4375,12.71875 c -0.421875,-0.421875 -1.109375,-0.421875 -1.53125,0 l -1.535156,1.535156 c -0.421875,0.421875 -0.421875,1.109375 0,1.535157 L 9.582031,22 c 0.347657,0.347656 0.894532,0.613281 1.386719,0.613281 0.492188,0 0.988281,-0.308593 1.308594,-0.773437 L 22.855469,6.234375 C 23.191406,5.742188 23.0625,5.066406 22.566406,4.730469 Z"
           style="fill:#007100;fill-opacity:1"
           inkscape:connector-curvature="0" /></g></g><g
       style="fill:#ce0000;fill-opacity:1"
       id="surface1-6"
       transform="matrix(12.397344,0,0,12.239352,235.97434,740.39349)"><path
         id="path5-7"
         d="m 21.734375,19.640625 -2.097656,2.09375 c -0.382813,0.386719 -1.007813,0.386719 -1.394531,0 L 13,16.496094 7.761719,21.734375 c -0.386719,0.386719 -1.015625,0.386719 -1.398438,0 l -2.097656,-2.09375 c -0.386719,-0.386719 -0.386719,-1.011719 0,-1.398437 L 9.503906,13 4.265625,7.761719 c -0.382812,-0.390625 -0.382812,-1.019531 0,-1.398438 L 6.363281,4.265625 c 0.382813,-0.386719 1.011719,-0.386719 1.398438,0 L 13,9.507813 18.242188,4.265625 c 0.386718,-0.386719 1.015625,-0.386719 1.394531,0 l 2.097656,2.09375 c 0.386719,0.386719 0.386719,1.015625 0.0039,1.402344 L 16.496094,13 l 5.238281,5.242188 c 0.386719,0.386718 0.386719,1.011718 0,1.398437 z"
         style="fill:#ce0000;fill-opacity:1"
         inkscape:connector-curvature="0" /></g><path
       d="M 222.23539,465.89556 335.92591,328.85831 h -26.93152 l -98.75912,118.9632 -78.82001,-118.9632 H 40.483194 L 159.7005,508.76886 40.483194,652.45586 H 67.414721 L 171.63952,526.79977 254.89722,652.45586 H 345.8293 M 77.134901,349.91777 H 118.5093 l 190.46473,282.51331 h -41.38456"
       id="path56"
       style="fill:#cccccc;stroke-width:1.04737" /></g><style
     id="style4148"
     type="text/css">
	.st0{opacity:0.15;fill:#292F33;}
	.st1{fill:#FFFFFF;}
</style></svg>
